<svg width="60" height="60" viewBox="0 0 60 60" fill="none" xmlns="http://www.w3.org/2000/svg">
<rect width="60" height="60" fill="#FA7268"/>
<path d="M31.7292 31.168V55H34.8612L49.5852 34.876V55H52.2852V31.168H49.1532L34.4292 51.22V31.168H31.7292Z" fill="white"/>
<path d="M28.6049 55H25.6169L22.7009 48.088H10.8929L7.97686 55H4.98886L15.1049 31.168H18.4889L28.6049 55ZM21.6569 45.604L16.7969 33.976L11.9369 45.604H21.6569ZM52.1888 31.168V55H49.0568L34.3328 34.876V55H31.6328V31.168H34.7648L49.4888 51.22V31.168H52.1888Z" fill="white"/>
<path d="M52.6343 6.168V19.74C52.6343 22.908 51.6863 25.464 49.7903 27.408C47.9183 29.328 45.4823 30.288 42.4823 30.288C39.5063 30.288 37.0703 29.328 35.1743 27.408C33.3023 25.464 32.3663 22.908 32.3663 19.74V6.168H35.0663V19.812C35.0663 22.38 35.8343 24.384 37.3703 25.824C38.6903 27.048 40.3943 27.66 42.4823 27.66C44.5703 27.66 46.2863 27.048 47.6303 25.824C49.1663 24.408 49.9343 22.404 49.9343 19.812V6.168H52.6343Z" fill="white"/>
</svg>
