<svg width="160" height="52" viewBox="0 0 160 52" fill="none" xmlns="http://www.w3.org/2000/svg">
<path d="M95.1481 41H99.2981L103.348 31.4H119.748L123.798 41H127.948L113.898 7.9H109.198L95.1481 41ZM104.798 27.95L111.548 11.8L118.298 27.95H104.798ZM65.3927 7.9V41H69.7427L90.1927 13.05V41H93.9427V7.9H89.5927L69.1427 35.75V7.9H65.3927Z" fill="white"/>
<path d="M64.5623 41H60.4123L56.3623 31.4H39.9623L35.9123 41H31.7623L45.8123 7.9H50.5123L64.5623 41ZM54.9123 27.95L48.1623 11.8L41.4123 27.95H54.9123ZM94.3178 7.9V41H89.9678L69.5178 13.05V41H65.7678V7.9H70.1178L90.5678 35.75V7.9H94.3178Z" fill="white"/>
</svg>
