<svg width="186" height="52" viewBox="0 0 186 52" fill="none" xmlns="http://www.w3.org/2000/svg">
<path d="M120.677 41H124.827L128.877 31.4H145.277L149.327 41H153.477L139.427 7.9H134.727L120.677 41ZM130.327 27.95L137.077 11.8L143.827 27.95H130.327ZM90.9215 7.9V41H95.2715L115.722 13.05V41H119.472V7.9H115.122L94.6715 35.75V7.9H90.9215Z" fill="white"/>
<path d="M64.5623 41H60.4123L56.3623 31.4H39.9623L35.9123 41H31.7623L45.8123 7.9H50.5123L64.5623 41ZM54.9123 27.95L48.1623 11.8L41.4123 27.95H54.9123ZM94.3178 7.9V41H89.9678L69.5178 13.05V41H65.7678V7.9H70.1178L90.5678 35.75V7.9H94.3178Z" fill="white"/>
</svg>
